<svg xmlns="http://www.w3.org/2000/svg" viewBox="0 0 344.19 183.541"><path d="M86.833 153.243c6.923-5.771 8.119-12.932 8.119-19.331v-26.968H57.315v36.588a9.477 9.477 0 0 1-9.467 9.473 9.175 9.175 0 0 1-9.119-9.473V39.881a9.174 9.174 0 0 1 9.119-9.467 9.472 9.472 0 0 1 9.467 9.467v36.814h37.594V38.509C94.9 17.409 81.117.049 47.525 0 13.036 0 0 17.446 0 38.546v108.207c0 20.917 16.6 36.746 37.832 36.74h11.663l37.338-30.25m148.4 4.246V38.576h-25.968V3.544h94.019v35.032H277.17v144.715h-11.133l-30.8-25.8" data-name="Path 3116"/><path fill="#f6d33c" d="m252.087 183.542-91.566-76.707-94.879 76.707h186.445" data-name="Path 3117"/><path d="M186.658 3.739h-52.459l-30.561 137.109 56.91-45.922 59.334 49.715Zm-36.264 82.4 10.154-51.821 10.067 51.819ZM331.837 9.253a10.184 10.184 0 0 1 7.5 3.117 10.237 10.237 0 0 1 3.087 7.491 10.313 10.313 0 0 1-3.087 7.533 10.574 10.574 0 0 1-14.994 0 10.327 10.327 0 0 1-3.074-7.533 10.246 10.246 0 0 1 3.079-7.491 10.187 10.187 0 0 1 7.485-3.117Zm12.352 10.583a11.763 11.763 0 0 0-3.605-8.668 12.3 12.3 0 0 0-20.99 8.668 11.927 11.927 0 0 0 3.568 8.723 12.3 12.3 0 0 0 17.421 0 11.9 11.9 0 0 0 3.605-8.723Zm-9.058-2.641a2.069 2.069 0 0 1-1.4 2.1 6.71 6.71 0 0 1-2.287.3h-2.165v-4.864h2.05c2.666 0 3.806.512 3.806 2.464Zm-8.241-4.13v13.488h2.385v-5.295h1.885a5.738 5.738 0 0 1 2.66.433c.854.5 1.275 1.525 1.275 3.074v1.067l.055.433a1.118 1.118 0 0 0 .031.153l.037.128h2.214l-.085-.165c-.14-1.055-.153-2.684-.153-2.684a3.471 3.471 0 0 0-3.007-3.4c2.391-.4 3.245-1.476 3.245-3.324a3.356 3.356 0 0 0-2.1-3.428 10.248 10.248 0 0 0-3.7-.488h-4.746Z" data-name="Path 3118"/></svg>