<svg xmlns="http://www.w3.org/2000/svg" data-name="Layer 1" viewBox="0 0 128 128"><path fill="#fc785e" d="M71.75 62h-17.5l-4.737 6.179a52.17 52.17 0 0 0-4.388-5.554h-1A21.423 21.423 0 0 1 31.18 67h-1.36a21.344 21.344 0 0 1-12.997-4.375H14.75c-5.75 0-9.125 10.75-9.125 10.75V115l50.875-.375a124.154 124.154 0 0 1 0-25.5 18.85 18.85 0 0 0 .089-3.1l3.911-5.9 12.625-1.5s4.625-1.75 4.625-8.375a8.492 8.492 0 0 0-6-8.25Z"/><path fill="#2d4356" d="M45.5 43.25c0-.39.03-.78.05-1.16.03-.28.06-.57.09-.84a15.983 15.983 0 0 1 3.86-8.52V31c0-11.21-8.05-20-18.32-20h-1.36C19.55 11 11.5 19.79 11.5 31v12c0 11.21 8.05 20 18.32 20h1.36a17.945 17.945 0 0 0 16.07-10.27 15.807 15.807 0 0 1-1.75-7.22Zm-14.47 2.84 5.5 3.04a2 2 0 0 0 2.28-.24l4.29-3.75 2.26.06C44.42 53.09 38.54 59 31.18 59h-1.36c-8.03 0-14.32-7.03-14.32-16V31c0-8.97 6.29-16 14.32-16h1.36c8.03 0 14.32 7.03 14.32 16v10.2l-3.08-.07a1.85 1.85 0 0 0-1.36.49l-3.82 3.33-4.27-2.36a2 2 0 0 0-1.94 3.5Z"/><path fill="#e1ebf4" d="M30.25 43.38a2 2 0 0 0 .78 2.71l5.5 3.04a2 2 0 0 0 2.28-.24l4.29-3.75 2.26.06C44.42 53.09 38.54 59 31.18 59h-1.36c-8.03 0-14.32-7.03-14.32-16V31c0-8.97 6.29-16 14.32-16h1.36c8.03 0 14.32 7.03 14.32 16v10.2l-3.08-.07a1.85 1.85 0 0 0-1.36.49l-3.82 3.33-4.27-2.36a2.004 2.004 0 0 0-2.72.79Z"/><path fill="#2d4356" d="M115.46 17.25a4.202 4.202 0 0 0-2.5.86.42.42 0 0 0-.1.04c-20.33 13.09-30.23 14.6-33.25 14.7a2.005 2.005 0 0 0-1.94-1.53H61.43A11.941 11.941 0 0 0 49.5 43.25v2.26a11.942 11.942 0 0 0 11.72 11.92v2.82H55.7a4.992 4.992 0 0 0-4 2.01l-25.2 33.8V77.25a2 2 0 0 0-4 0v24.84a2 2 0 0 0 3.6 1.2l28.8-38.64a1.014 1.014 0 0 1 .8-.4h14.29a6.51 6.51 0 1 1 0 13.02h-7.61a4.984 4.984 0 0 0-4.15 2.22l-18.52 27.65a2.001 2.001 0 0 0 3.33 2.22l18.18-27.15v4.98a2.039 2.039 0 0 0 .87 1.66 1.999 1.999 0 0 0 1.13.34 1.86 1.86 0 0 0 .73-.14l11.92-4.69a2 2 0 0 0 1.26-1.86v-4.05a10.432 10.432 0 0 0 2.31-12.26h5.44a5.023 5.023 0 0 0 5.02-5.02v-2.65c5.47 2.07 13.1 5.76 23.3 12.32.03.02.06.03.09.05a4.171 4.171 0 0 0 2.17.62c6.21 0 9.04-14.06 9.04-27.13s-2.83-27.13-9.04-27.13Zm-56.4 35.83a7.942 7.942 0 0 1-5.56-7.57v-2.26a7.942 7.942 0 0 1 5.56-7.57Zm14.07 7.65a10.518 10.518 0 0 0-3.14-.48h-4.77v-2.81h7.91Zm2.54-7.29H63.06V35.32h12.61Zm-2.54 27.7-7.91 3.11v-2.98h4.77a10.518 10.518 0 0 0 3.14-.48ZM85.9 61.17a1.024 1.024 0 0 1-1.02 1.02h-7.75v-4.75h.54a1.993 1.993 0 0 0 1.93-1.51 28.074 28.074 0 0 1 6.3 1.24Zm-6.23-9.26V36.87c3.61-.07 12.42-1.61 29.09-11.49a69.235 69.235 0 0 0-2.35 19c0 6.78.76 13.83 2.37 19.04-16.64-9.81-25.51-11.39-29.11-11.51Zm30.74-7.53c0-1.67.05-3.24.13-4.74a2.458 2.458 0 0 0 .39.04c2.22 0 4.03 2.25 4.03 5.03s-1.81 5.04-4.03 5.04a2.19 2.19 0 0 0-.36.03c-.1-1.68-.16-3.48-.16-5.4Zm5.05 23.13c-1.13 0-3.49-4.78-4.53-13.76 4.43 0 8.03-4.06 8.03-9.04s-3.6-9.03-8.03-9.03h-.07c1-9.41 3.45-14.43 4.6-14.43 1.46 0 5.04 8.11 5.04 23.13s-3.58 23.13-5.04 23.13Z"/><path fill="#81d9e3" d="M59.06 35.68v17.4a7.942 7.942 0 0 1-5.56-7.57v-2.26a7.942 7.942 0 0 1 5.56-7.57zm14.07 45.11v.35l-7.91 3.11v-2.98h4.77a10.518 10.518 0 0 0 3.14-.48zm0-23.35v3.29a10.518 10.518 0 0 0-3.14-.48h-4.77v-2.81z"/><path fill="#e1ebf4" d="M85.9 57.17v4a1.024 1.024 0 0 1-1.02 1.02h-7.75v-4.75h.54a1.993 1.993 0 0 0 1.93-1.51 28.074 28.074 0 0 1 6.3 1.24zm34.6-12.79c0 15.02-3.58 23.13-5.04 23.13-1.13 0-3.49-4.78-4.53-13.76 4.43 0 8.03-4.06 8.03-9.04s-3.6-9.03-8.03-9.03h-.07c1-9.41 3.45-14.43 4.6-14.43 1.46 0 5.04 8.11 5.04 23.13z"/><path fill="#81d9e3" d="M114.96 44.71c0 2.78-1.81 5.04-4.03 5.04a2.19 2.19 0 0 0-.36.03 88.513 88.513 0 0 1-.03-10.14 2.458 2.458 0 0 0 .39.04c2.22 0 4.03 2.25 4.03 5.03zm-6.18 18.71c-16.64-9.81-25.51-11.39-29.11-11.51V36.87c3.61-.07 12.42-1.61 29.09-11.49a69.235 69.235 0 0 0-2.35 19c0 6.78.76 13.83 2.37 19.04z"/><path fill="#e1ebf4" d="M63.06 35.32h12.61v18.12H63.06z"/><path fill="#2d4356" d="M126 113H57.5V94.955l-4 5.973V113h-46V78.081a16.015 16.015 0 0 1 10.132-14.87 22.202 22.202 0 0 1-3.363-2.854A20.008 20.008 0 0 0 3.5 78.08V113H2a2 2 0 0 0 0 4h124a2 2 0 0 0 0-4zM43.37 63.209a16.102 16.102 0 0 1 1.943.923l2.398-3.217a20.507 20.507 0 0 0-.99-.548 22.199 22.199 0 0 1-3.35 2.842z"/><path fill="#f9dbd7" d="M76.5 70.76a6.533 6.533 0 0 1-.08 1 6.512 6.512 0 0 0-6.43-5.51H55.7a1.014 1.014 0 0 0-.8.4l-28.8 38.64a2 2 0 0 1-3.6-1.2v-2a2 2 0 0 0 3.6 1.2l28.8-38.64a1.014 1.014 0 0 1 .8-.4h14.29a6.517 6.517 0 0 1 6.51 6.51Z" opacity=".3"/><path fill="#9fa5aa" d="M45.36 45.2C44.42 53.09 38.54 59 31.18 59h-1.36c-8.03 0-14.32-7.03-14.32-16v-2c0 8.97 6.29 16 14.32 16h1.36c6.73 0 12.21-4.93 13.83-11.81Z" opacity=".5"/><path fill="#fff" d="M45.5 31v2c0-8.97-6.29-16-14.32-16h-1.36c-8.03 0-14.32 7.03-14.32 16v-2c0-8.97 6.29-16 14.32-16h1.36c8.03 0 14.32 7.03 14.32 16Z" opacity=".5"/><path fill="#0f423c" d="M114.96 44.71c0 2.78-1.81 5.04-4.03 5.04a2.19 2.19 0 0 0-.36.03c-.1-1.68-.16-3.48-.16-5.4 0-.31 0-.62.01-.93.01 1.52.07 2.97.15 4.33a2.19 2.19 0 0 1 .36-.03c1.94 0 3.57-1.73 3.95-4.03a6.402 6.402 0 0 1 .08.99Z" opacity=".3"/><path fill="#fff" d="M120.5 44.38c0 .34 0 .67-.01 1-.15-14.38-3.6-22.13-5.03-22.13-1.07 0-3.25 4.31-4.36 12.43h-.24c1-9.41 3.45-14.43 4.6-14.43 1.46 0 5.04 8.11 5.04 23.13Z" opacity=".5"/><path fill="#9fa5aa" d="M120.5 44.38c0 15.02-3.58 23.13-5.04 23.13-1.13 0-3.49-4.78-4.53-13.76a2.435 2.435 0 0 0 .27-.01c1.12 7.69 3.22 11.77 4.26 11.77 1.43 0 4.88-7.75 5.03-22.13.01.33.01.66.01 1Z" opacity=".5"/><path fill="#0f423c" d="M108.78 63.42c-16.64-9.81-25.51-11.39-29.11-11.51v-2c3.55.12 12.24 1.66 28.47 11.14.19.83.41 1.62.64 2.37Z" opacity=".3"/><path fill="#9fa5aa" d="M63.06 51.44h12.61v2H63.06z" opacity=".5"/><path fill="#0f423c" d="M59.06 51.08v2a7.942 7.942 0 0 1-5.56-7.57v-2a7.942 7.942 0 0 0 5.56 7.57Z" opacity=".3"/><path fill="#e8fbfc" d="M59.06 35.68v2a7.942 7.942 0 0 0-5.56 7.57v-2a7.942 7.942 0 0 1 5.56-7.57Z" opacity=".4"/><path fill="#fff" d="M63.06 35.32h12.61v2H63.06z" opacity=".5"/><path fill="#e8fbfc" d="M108.76 25.38c-.23.75-.44 1.54-.64 2.37C91.86 37.3 83.23 38.8 79.67 38.87v-2c3.61-.07 12.42-1.61 29.09-11.49Z" opacity=".4"/></svg>